{
    "asset" : {
        "generator" : "Khronos glTF Blender I/O v1.7.33",
        "version" : "2.0"
    },
    "scene" : 0,
    "scenes" : [
        {
            "name" : "Scene",
            "nodes" : [
                0
            ]
        }
    ],
    "nodes" : [
        {
            "extras" : {
                "sparkar_optimization" : {
                    "InvertedReducePercentage" : 0.0
                },
                "spark_blender_addon" : 1
            },
            "mesh" : 0,
            "name" : "Kakkarot_Cube.002"
        }
    ],
    "materials" : [
        {
            "name" : "Texture4",
            "pbrMetallicRoughness" : {
                "baseColorTexture" : {
                    "index" : 0
                },
                "metallicFactor" : 0,
                "roughnessFactor" : 0.5
            }
        }
    ],
    "meshes" : [
        {
            "name" : "Kakkarot_Cube.002",
            "primitives" : [
                {
                    "attributes" : {
                        "POSITION" : 0,
                        "NORMAL" : 1,
                        "TEXCOORD_0" : 2
                    },
                    "indices" : 3,
                    "material" : 0
                }
            ]
        }
    ],
    "textures" : [
        {
            "sampler" : 0,
            "source" : 0
        }
    ],
    "images" : [
        {
            "bufferView" : 4,
            "mimeType" : "image/png",
            "name" : "TextureDiff5"
        }
    ],
    "accessors" : [
        {
            "bufferView" : 0,
            "componentType" : 5126,
            "count" : 1107,
            "max" : [
                0.25792932510375977,
                1,
                0.2353542149066925
            ],
            "min" : [
                -0.25792932510375977,
                0,
                -0.2353542149066925
            ],
            "type" : "VEC3"
        },
        {
            "bufferView" : 1,
            "componentType" : 5126,
            "count" : 1107,
            "type" : "VEC3"
        },
        {
            "bufferView" : 2,
            "componentType" : 5126,
            "count" : 1107,
            "type" : "VEC2"
        },
        {
            "bufferView" : 3,
            "componentType" : 5123,
            "count" : 4320,
            "type" : "SCALAR"
        }
    ],
    "bufferViews" : [
        {
            "buffer" : 0,
            "byteLength" : 13284,
            "byteOffset" : 0
        },
        {
            "buffer" : 0,
            "byteLength" : 13284,
            "byteOffset" : 13284
        },
        {
            "buffer" : 0,
            "byteLength" : 8856,
            "byteOffset" : 26568
        },
        {
            "buffer" : 0,
            "byteLength" : 8640,
            "byteOffset" : 35424
        },
        {
            "buffer" : 0,
            "byteLength" : 71188,
            "byteOffset" : 44064
        }
    ],
    "samplers" : [
        {
            "magFilter" : 9729,
            "minFilter" : 9987
        }
    ],
    "buffers" : [
        {
            "byteLength" : 115252,
            "uri" : "data:application/octet-stream;base64,"
        }
    ]
}
